<svg width="26" height="27" viewBox="0 0 26 27" fill="none" xmlns="http://www.w3.org/2000/svg">
<path d="M7.50155 12.0409L10.4793 7.91878C10.6573 7.67238 10.7523 7.38287 10.7523 7.08673V3.04089C10.7523 2.21247 11.48 1.54089 12.3777 1.54089H14.0031C15.7985 1.54089 17.2539 2.88404 17.2539 4.54089V12.0409M14.0031 12.0409H21.7488C23.6863 12.0409 25.1937 13.5951 24.9797 15.3722L24.0767 22.8722C23.8938 24.3915 22.5023 25.5409 20.8458 25.5409H14.6764C14.2453 25.5409 13.8319 25.3829 13.527 25.1016L12.8538 24.4802C12.549 24.1989 12.1355 24.0409 11.7045 24.0409H7.50155M2.62539 24.0409H7.25774C7.39239 24.0409 7.50155 23.9402 7.50155 23.8159V12.2659C7.50155 12.1416 7.39239 12.0409 7.25774 12.0409H2.62539C1.72771 12.0409 1 12.7125 1 13.5409V22.5409C1 23.3693 1.72771 24.0409 2.62539 24.0409Z" stroke="#FFCF00" stroke-width="2" stroke-linecap="round"/>
</svg>
